<svg width="351" height="39" viewBox="0 0 351 39" fill="none" xmlns="http://www.w3.org/2000/svg">
<path d="M24.0383 8.80287C23.7868 9.20524 23.5186 9.50702 23.2336 9.70821C22.9653 9.90939 22.6132 10.01 22.1773 10.01C21.7917 10.01 21.3726 9.89262 20.9199 9.65791C20.484 9.40642 19.9811 9.12979 19.411 8.82801C18.8578 8.52623 18.2207 8.25799 17.4998 8.02327C16.7788 7.77179 15.9573 7.64605 15.0352 7.64605C13.4425 7.64605 12.2522 7.98974 11.4642 8.67713C10.693 9.34775 10.3074 10.2615 10.3074 11.4183C10.3074 12.156 10.5421 12.7679 11.0115 13.2541C11.4809 13.7403 12.0929 14.1594 12.8473 14.5115C13.6185 14.8636 14.4903 15.1905 15.4627 15.4923C16.4519 15.7773 17.4578 16.1042 18.4805 16.4731C19.5032 16.8252 20.5008 17.2443 21.4732 17.7305C22.4623 18.2167 23.3342 18.837 24.0886 19.5915C24.8598 20.3459 25.4801 21.268 25.9496 22.3578C26.419 23.4308 26.6537 24.7301 26.6537 26.2558C26.6537 27.9491 26.3603 29.5334 25.7735 31.0088C25.1867 32.4841 24.3317 33.7751 23.2084 34.8816C22.1019 35.9714 20.7271 36.8348 19.0841 37.4719C17.4578 38.0922 15.6053 38.4024 13.5263 38.4024C12.3863 38.4024 11.2211 38.285 10.0307 38.0503C8.85714 37.8156 7.71708 37.4887 6.61056 37.0695C5.50403 36.6336 4.46457 36.1223 3.49217 35.5355C2.51977 34.9487 1.67312 34.2948 0.952198 33.5739L3.46702 29.6005C3.66821 29.3155 3.92808 29.0807 4.24662 28.8963C4.58193 28.6951 4.94239 28.5945 5.328 28.5945C5.83096 28.5945 6.33393 28.7538 6.83689 29.0724C7.35662 29.3909 7.93503 29.743 8.57212 30.1286C9.22598 30.5142 9.97204 30.8663 10.8103 31.1848C11.6486 31.5034 12.6378 31.6626 13.7778 31.6626C15.3202 31.6626 16.519 31.3273 17.374 30.6567C18.2291 29.9693 18.6566 28.8879 18.6566 27.4126C18.6566 26.5575 18.4219 25.8618 17.9524 25.3253C17.483 24.7888 16.8627 24.3445 16.0915 23.9924C15.337 23.6403 14.4736 23.3302 13.5012 23.0619C12.5288 22.7937 11.5312 22.5003 10.5085 22.1817C9.48584 21.8464 8.48829 21.4441 7.51589 20.9746C6.5435 20.4884 5.67169 19.8597 4.90048 19.0885C4.14603 18.3005 3.53409 17.3281 3.06465 16.1713C2.59522 14.9977 2.3605 13.5559 2.3605 11.8458C2.3605 10.471 2.63713 9.12979 3.19039 7.82208C3.74366 6.51437 4.55678 5.34917 5.62978 4.32647C6.70277 3.30378 8.01886 2.49065 9.57805 1.88709C11.1372 1.26677 12.9228 0.956609 14.9346 0.956609C16.0579 0.956609 17.1477 1.04882 18.2039 1.23324C19.2769 1.4009 20.2912 1.66076 21.2468 2.01283C22.2025 2.34815 23.0911 2.7589 23.9126 3.2451C24.7508 3.71453 25.4969 4.25103 26.1508 4.85459L24.0383 8.80287ZM50.1728 23.9924L46.7778 13.9583C46.5264 13.3212 46.2581 12.5751 45.9731 11.7201C45.6881 10.8483 45.4031 9.90939 45.118 8.90346C44.8666 9.92616 44.5983 10.8734 44.3133 11.7452C44.0283 12.617 43.76 13.3715 43.5086 14.0086L40.1387 23.9924H50.1728ZM63.6775 38H57.0886C56.3509 38 55.7558 37.8323 55.3031 37.497C54.8504 37.145 54.5067 36.7007 54.272 36.1642L52.1093 29.7765H38.1771L36.0144 36.1642C35.83 36.6336 35.4946 37.0611 35.0084 37.4467C34.539 37.8156 33.9522 38 33.2481 38H26.6089L40.7925 1.35898H49.4938L63.6775 38ZM75.1168 38H66.5664V1.35898H75.1168V38ZM96.6712 31.5872C97.7945 31.5872 98.7082 31.4447 99.4124 31.1597C100.133 30.8747 100.695 30.5058 101.097 30.0531C101.5 29.6005 101.776 29.0891 101.927 28.5191C102.078 27.9491 102.154 27.3707 102.154 26.7839C102.154 26.1133 102.061 25.5097 101.877 24.9732C101.709 24.4367 101.407 23.984 100.972 23.6152C100.552 23.2464 99.9908 22.9613 99.2866 22.7602C98.5825 22.559 97.6939 22.4584 96.6209 22.4584H90.6859V31.5872H96.6712ZM90.6859 7.72149V16.7749H95.112C96.0509 16.7749 96.8975 16.7078 97.652 16.5737C98.4064 16.4396 99.0435 16.2048 99.5632 15.8695C100.1 15.5342 100.502 15.0732 100.77 14.4864C101.055 13.8996 101.198 13.1619 101.198 12.2733C101.198 11.4015 101.089 10.6806 100.871 10.1106C100.653 9.52378 100.318 9.05435 99.865 8.70227C99.4124 8.3502 98.8339 8.09871 98.1298 7.94783C97.4424 7.79693 96.6209 7.72149 95.6653 7.72149H90.6859ZM95.6653 1.35898C98.1969 1.35898 100.351 1.5937 102.128 2.06313C103.906 2.53257 105.356 3.1948 106.479 4.04985C107.602 4.90489 108.415 5.94435 108.918 7.16823C109.438 8.39211 109.698 9.7585 109.698 11.2674C109.698 12.0889 109.581 12.8853 109.346 13.6565C109.111 14.4109 108.742 15.1235 108.239 15.7941C107.736 16.4479 107.091 17.0515 106.303 17.6048C105.515 18.158 104.568 18.6358 103.461 19.0382C105.875 19.625 107.661 20.5723 108.818 21.88C109.975 23.1877 110.553 24.881 110.553 26.9599C110.553 28.5191 110.251 29.9693 109.648 31.3106C109.044 32.6518 108.156 33.8254 106.982 34.8313C105.825 35.8205 104.392 36.6001 102.682 37.1701C100.972 37.7234 99.0184 38 96.8221 38H82.1858V1.35898H95.6653ZM134.606 23.9924L131.211 13.9583C130.96 13.3212 130.691 12.5751 130.406 11.7201C130.121 10.8483 129.836 9.90939 129.551 8.90346C129.3 9.92616 129.032 10.8734 128.747 11.7452C128.462 12.617 128.193 13.3715 127.942 14.0086L124.572 23.9924H134.606ZM148.111 38H141.522C140.784 38 140.189 37.8323 139.736 37.497C139.284 37.145 138.94 36.7007 138.705 36.1642L136.543 29.7765H122.61L120.448 36.1642C120.263 36.6336 119.928 37.0611 119.442 37.4467C118.972 37.8156 118.386 38 117.681 38H111.042L125.226 1.35898H133.927L148.111 38ZM170.691 7.97297C170.506 8.27475 170.314 8.50109 170.112 8.65198C169.911 8.7861 169.66 8.85316 169.358 8.85316C169.039 8.85316 168.679 8.71904 168.277 8.45079C167.891 8.18254 167.405 7.88915 166.818 7.5706C166.248 7.23529 165.569 6.93351 164.781 6.66526C163.993 6.38025 163.054 6.23774 161.964 6.23774C160.958 6.23774 160.07 6.36349 159.299 6.61497C158.544 6.86645 157.907 7.21853 157.387 7.67119C156.868 8.12386 156.474 8.66036 156.205 9.28068C155.954 9.88424 155.828 10.5465 155.828 11.2674C155.828 12.1895 156.071 12.9607 156.557 13.581C157.044 14.1846 157.681 14.7043 158.469 15.1402C159.273 15.5761 160.187 15.9617 161.21 16.297C162.233 16.6156 163.272 16.9593 164.328 17.3281C165.401 17.697 166.449 18.1161 167.472 18.5855C168.495 19.055 169.4 19.6502 170.188 20.3711C170.993 21.092 171.638 21.9722 172.124 23.0116C172.61 24.0511 172.854 25.3169 172.854 26.809C172.854 28.4185 172.577 29.9274 172.024 31.3357C171.47 32.744 170.666 33.9763 169.609 35.0325C168.57 36.072 167.279 36.8935 165.737 37.497C164.211 38.1006 162.467 38.4024 160.506 38.4024C159.349 38.4024 158.217 38.285 157.111 38.0503C156.021 37.8323 154.973 37.5222 153.967 37.1198C152.978 36.7007 152.048 36.1977 151.176 35.6109C150.304 35.0241 149.524 34.3703 148.837 33.6494L150.547 30.8327C150.698 30.598 150.891 30.4136 151.125 30.2795C151.36 30.1454 151.62 30.0783 151.905 30.0783C152.291 30.0783 152.718 30.2627 153.188 30.6316C153.657 30.9836 154.219 31.3776 154.873 31.8135C155.543 32.2327 156.348 32.6267 157.287 32.9955C158.226 33.3476 159.349 33.5236 160.657 33.5236C162.786 33.5236 164.429 33.0039 165.586 31.9644C166.759 30.925 167.346 29.4915 167.346 27.6641C167.346 26.6414 167.103 25.8115 166.617 25.1744C166.131 24.5205 165.485 23.9757 164.68 23.5397C163.892 23.1038 162.987 22.735 161.964 22.4332C160.942 22.1314 159.902 21.8129 158.846 21.4776C157.79 21.1255 156.75 20.7231 155.728 20.2705C154.705 19.801 153.791 19.1975 152.986 18.4598C152.198 17.7054 151.561 16.7832 151.075 15.6935C150.589 14.587 150.346 13.2122 150.346 11.5692C150.346 10.2615 150.597 8.99567 151.1 7.77179C151.62 6.54791 152.366 5.46653 153.338 4.52766C154.328 3.57203 155.543 2.8092 156.985 2.23917C158.427 1.66914 160.07 1.38413 161.914 1.38413C163.993 1.38413 165.896 1.71106 167.623 2.36491C169.366 3.01877 170.867 3.94925 172.124 5.15637L170.691 7.97297ZM193.495 33.247C194.887 33.247 196.127 33.0123 197.217 32.5428C198.324 32.0734 199.254 31.4195 200.009 30.5813C200.78 29.743 201.367 28.7371 201.769 27.5635C202.171 26.3731 202.372 25.057 202.372 23.6152V1.7865H208.232V23.6152C208.232 25.7444 207.888 27.7144 207.201 29.525C206.53 31.3357 205.558 32.9033 204.284 34.2278C203.01 35.5355 201.459 36.5665 199.631 37.321C197.821 38.0587 195.775 38.4275 193.495 38.4275C191.215 38.4275 189.161 38.0587 187.334 37.321C185.523 36.5665 183.981 35.5355 182.707 34.2278C181.432 32.9033 180.452 31.3357 179.764 29.525C179.094 27.7144 178.758 25.7444 178.758 23.6152V1.7865H184.643V23.59C184.643 25.0319 184.844 26.348 185.247 27.5383C185.649 28.7119 186.227 29.7262 186.982 30.5813C187.736 31.4195 188.658 32.0734 189.748 32.5428C190.855 33.0123 192.104 33.247 193.495 33.247ZM254.92 1.7865V38H249.74V13.1787C249.74 12.7763 249.748 12.3404 249.765 11.871C249.798 11.3848 249.84 10.8986 249.891 10.4124L238.247 31.9141C237.794 32.8027 237.098 33.247 236.16 33.247H235.33C234.374 33.247 233.678 32.8027 233.242 31.9141L221.423 10.3621C221.473 10.8483 221.507 11.3345 221.523 11.8207C221.557 12.3069 221.574 12.7595 221.574 13.1787V38H216.393V1.7865H220.794C221.314 1.7865 221.716 1.8368 222.001 1.93739C222.286 2.02122 222.546 2.29785 222.781 2.76728L234.399 23.8164C234.651 24.3026 234.885 24.8055 235.103 25.3253C235.338 25.8282 235.548 26.348 235.732 26.8845C235.933 26.348 236.143 25.8199 236.361 25.3001C236.595 24.7636 236.839 24.2523 237.09 23.7661L248.533 2.76728C248.767 2.29785 249.027 2.02122 249.312 1.93739C249.597 1.8368 249.999 1.7865 250.519 1.7865H254.92ZM302.024 1.7865V38H296.844V13.1787C296.844 12.7763 296.852 12.3404 296.869 11.871C296.902 11.3848 296.944 10.8986 296.994 10.4124L285.351 31.9141C284.898 32.8027 284.202 33.247 283.263 33.247H282.434C281.478 33.247 280.782 32.8027 280.346 31.9141L268.527 10.3621C268.577 10.8483 268.61 11.3345 268.627 11.8207C268.661 12.3069 268.677 12.7595 268.677 13.1787V38H263.497V1.7865H267.898C268.418 1.7865 268.82 1.8368 269.105 1.93739C269.39 2.02122 269.65 2.29785 269.885 2.76728L281.503 23.8164C281.755 24.3026 281.989 24.8055 282.207 25.3253C282.442 25.8282 282.652 26.348 282.836 26.8845C283.037 26.348 283.247 25.8199 283.465 25.3001C283.699 24.7636 283.942 24.2523 284.194 23.7661L295.636 2.76728C295.871 2.29785 296.131 2.02122 296.416 1.93739C296.701 1.8368 297.103 1.7865 297.623 1.7865H302.024ZM316.511 38H310.601V1.7865H316.511V38ZM350.012 6.69041H338.721V38H332.861V6.69041H321.545V1.7865H350.012V6.69041Z" fill="white"/>
</svg>
